<?xml version="1.0" encoding="utf-8" ?><svg xmlns="http://www.w3.org/2000/svg" xmlns:xlink="http://www.w3.org/1999/xlink" width="1024" height="1024" viewBox="0 0 1024 1024"><defs><linearGradient id="gradient_0" gradientUnits="userSpaceOnUse" x1="505.59308" y1="771.05792" x2="517.93097" y2="252.43036"><stop offset="0" stop-color="#FFA939"/><stop offset="1" stop-color="#F0E471"/></linearGradient></defs><path fill="url(#gradient_0)" d="M323.038 255.724C349.144 255.158 376.992 255.594 403.223 255.58L561.635 255.673L650.003 255.783C683.57 255.838 713.614 254.447 746.537 262.198C792.207 273.074 834.273 295.618 868.62 327.623C916.896 373.941 945.028 437.381 946.948 504.256C949.37 572.797 924.193 639.445 877.059 689.265C832.717 735.942 769.27 766.339 704.625 768.035C677.853 768.46 649.756 767.994 622.846 767.967L459.695 767.913L370.14 767.976C353.849 767.991 337.257 768.333 320.995 767.9C260.844 766.297 202.473 741.516 158.784 700.503C109.051 654.149 79.6594 590.014 77.015 522.08C74.9888 452.268 97.8445 387.929 145.75 336.197C184.386 294.475 234.885 267.17 291.155 258.054C301.095 256.444 312.965 256.011 323.038 255.724Z"/><path fill="#0078FE" d="M157.52 433.966L251.925 433.999C257.63 439.952 266.822 451.756 272.585 458.543C287.953 476.294 302.996 494.323 317.705 512.623C305.766 525 293.58 540.395 282.392 553.775L252.041 589.158C221.735 588.368 188.334 588.785 157.975 588.895C156.862 537.27 158.427 485.733 157.52 433.966Z"/><path fill="#FEFEFE" d="M200.39 457.782C212.579 464.415 229.347 475.736 241.755 483.35C255.594 491.841 274.131 502.531 286.804 511.657C275.885 518.36 265.03 525.166 254.24 532.074C236.485 543.501 218.58 554.691 200.528 565.642C199.607 531.014 200.423 492.773 200.39 457.782Z"/><path d="M472.774 437.712C490.617 436.332 513.126 441.546 527.224 452.9C540.203 463.353 543.422 475.807 545.164 491.513L504.854 491.563C504.431 488.755 503.861 485.898 502.742 483.278C496.858 468.039 473.365 465.086 460.389 471.521C431.28 485.957 435.654 551.073 472.311 553.077C483.947 553.713 497.033 551.389 502.422 539.739C503.781 536.801 504.489 534.062 505.337 531.02L515.837 531.169L545.248 531.054C543.328 543.139 541.598 552 533.695 561.84C523.431 574.62 504.994 581.826 489.076 583.434C469.042 585.458 446.663 582.957 430.675 569.648C415.536 557.046 407.385 542.117 405.611 522.508C403.613 500.422 405.916 479.114 420.751 461.698C435.331 444.583 451.141 439.493 472.774 437.712Z"/><path d="M796.479 474.199C798.298 473.962 801.387 473.919 803.249 473.921C817.523 473.881 831.209 479.605 841.204 489.794C856.296 505.376 856.723 522.051 856.482 542.103C845.716 542.009 834.318 541.26 823.461 540.953C807.963 540.536 792.457 540.482 776.956 540.792C777.777 542.856 778.606 545.009 779.757 546.91C783.265 552.768 789.077 556.878 795.77 558.232C805.46 560.259 813.468 557.467 821.437 552.214L849.964 552.599C851.228 552.71 852.107 552.862 853.349 553.074L853.772 553.876C852.412 557.073 849.484 561.271 847.389 564.069C838.001 576.649 826.193 582.216 810.991 584.304C778.939 588.706 748.917 569.159 745.367 535.954C743.785 521.155 746.698 506.702 756.258 494.83C766.452 482.172 780.538 476.03 796.479 474.199Z"/><path fill="#F3C94D" d="M798.092 499.599C814.106 498.888 820.444 503.253 827.549 517.263C821.204 517.557 814.082 517.467 807.674 517.51L776.937 517.474C781.569 506.447 786.185 502.161 798.092 499.599Z"/><path d="M684.329 474.668C694.812 473.458 708.306 477.329 715.762 484.993C727.943 497.514 725.069 519.172 725.006 535.225L724.93 582.411L694.566 582.297L694.556 543.461C694.611 535.49 695.262 526.655 694.365 518.788C691.915 497.287 673.339 501.48 660.42 510.012L656.59 513.705L656.778 582.42L626.483 582.212L626.507 475.51L656.065 475.519L656.057 490.138C664.414 480.384 671.826 476.563 684.329 474.668Z"/><path d="M567.479 476.013L598.993 475.938L599.02 582.404L567.458 582.398L567.479 476.013Z"/><path d="M328.5 517.362C346.51 517.507 364.52 517.537 382.53 517.451L382.518 538.949L328.429 539.025L328.5 517.362Z"/><path d="M567.491 439.478L599.043 439.488L599.046 463.489L567.463 463.49L567.491 439.478Z"/></svg>